#!OML:ASF F:\VICON\USERDATA\INSTALL\rory3\rory3.ASF
:FULLY-SPECIFIED
:DEGREES
2351
root 5.48098 18.1142 10.8107 353.968 124.739 -3.60462
lowerback 11.4548 4.56195 0.841219
upperback 3.08529 6.27692 -2.49312
thorax -2.7897 3.21719 -3.90874
lowerneck -15.5647 9.30843 -4.16008
upperneck 46.6509 22.974 2.95522
head 20.0751 10.0263 7.22421
rclavicle 4.44284e-014 -1.51076e-014
rhumerus -36.2781 -11.6073 -80.6737
rradius 32.6754
rwrist 4.83706
rhand -14.0681 3.90953
rfingers 7.12502
rthumb 12.0635 -25.7228
lclavicle 4.44284e-014 -1.51076e-014
lhumerus -29.2924 0.639461 84.8113
lradius 37.8297
lwrist -0.765867
lhand -18.4037 27.2561
lfingers 7.12502
lthumb 7.8807 57.0892
rfemur -20.3855 -3.25511 12.1124
rtibia 56.4849
rfoot -11.569 -0.75381
rtoes -16.4887
lfemur -3.46333 -1.8925 -31.4991
ltibia 30.001
lfoot -1.82028 -13.4206
ltoes 2.1062
2352
root 5.40464 18.1223 10.8317 353.756 124.021 -3.83633
lowerback 11.2954 4.71414 0.812543
upperback 2.96949 6.46549 -2.58756
thorax -2.80223 3.30732 -4.00529
lowerneck -15.4978 9.37495 -3.95298
upperneck 46.591 23.0805 2.7654
head 20.0934 10.0771 7.12175
rclavicle 1.30204e-014 -2.82274e-014
rhumerus -36.0357 -11.3683 -80.8856
rradius 32.6219
rwrist 5.14827
rhand -13.7364 4.17047
rfingers 7.12502
rthumb 12.3833 -25.4428
lclavicle 1.30204e-014 -2.82274e-014
lhumerus -30.1152 1.62108 84.4083
lradius 37.7013
lwrist -1.04139
lhand -18.3676 27.6299
lfingers 7.12502
lthumb 7.91555 57.4617
rfemur -19.8519 -3.43102 12.0513
rtibia 57.7484
rfoot -11.1871 -1.0809
rtoes -15.4376
lfemur -3.63962 -1.27876 -31.6084
ltibia 29.7182
lfoot -1.58927 -13.3383
ltoes 2.47803
2353
root 5.32846 18.1336 10.8512 353.631 123.387 -4.03441
lowerback 11.1094 4.83885 0.840625
upperback 2.83157 6.62265 -2.70076
thorax -2.81637 3.38117 -4.14671
lowerneck -15.3807 9.46419 -3.93964
upperneck 46.4589 23.1494 2.73251
head 19.9747 10.1199 7.07705
rclavicle -3.98066e-014 2.26615e-014
rhumerus -35.8754 -11.0121 -81.1644
rradius 32.7054
rwrist 5.28436
rhand -13.6785 4.1825
rfingers 7.12502
rthumb 12.4391 -25.4273
lclavicle -3.98066e-014 2.26615e-014
lhumerus -30.8333 2.47777 83.9769
lradius 37.3896
lwrist -1.23709
lhand -18.7746 27.3036
lfingers 7.12502
lthumb 7.52276 57.1499
rfemur -19.3145 -3.65375 12.019
rtibia 58.9083
rfoot -10.7398 -1.5695
rtoes -14.487
lfemur -3.87183 -0.759424 -31.6991
ltibia 29.4142
lfoot -1.38503 -13.2503
ltoes 2.87487
2354
root 5.25147 18.1414 10.868 353.474 122.751 -4.25991
lowerback 10.8986 4.98659 0.863423
upperback 2.7185 6.81221 -2.7924
thorax -2.79096 3.4726 -4.2616
lowerneck -15.3638 9.48966 -4.00131
upperneck 46.4654 23.1635 2.80257
head 19.9443 10.1295 7.11279
rclavicle -3.67752e-014 2.66371e-014
rhumerus -35.7269 -10.7407 -81.3305
rradius 32.8367
rwrist 5.49481
rhand -13.747 4.24886
rfingers 7.12502
rthumb 12.373 -25.365
lclavicle -3.67752e-014 2.66371e-014
lhumerus -31.4523 3.22145 83.6147
lradius 36.9221
lwrist -1.37043
lhand -19.5329 26.8446
lfingers 7.12502
lthumb 6.79071 56.7157
rfemur -18.702 -3.94456 11.9272
rtibia 59.9727
rfoot -10.4829 -1.62512
rtoes -13.8148
lfemur -4.06596 -0.209589 -31.831
ltibia 29.0592
lfoot -1.45716 -13.0034
ltoes 1.38684
2355
root 5.17288 18.1484 10.8854 353.19 122.086 -4.67725
lowerback 10.6485 5.13204 0.766788
upperback 2.60959 6.98695 -2.90633
thorax -2.75125 3.55806 -4.32665
lowerneck -15.4612 9.49559 -4.02504
upperneck 46.5417 23.1553 2.88584
head 19.9975 10.1204 7.17351
rclavicle -1.88845e-015 -1.63003e-014
rhumerus -35.4706 -10.3231 -81.5527
rradius 32.9554
rwrist 5.50058
rhand -13.6907 4.07884
rfingers 7.12502
rthumb 12.4274 -25.5317
lclavicle -1.88845e-015 -1.63003e-014
lhumerus -32.0985 4.00101 83.2583
lradius 36.4874
lwrist -1.42763
lhand -20.0119 27.1954
lfingers 7.12502
lthumb 6.3283 57.0809
rfemur -18.1173 -4.25292 11.7161
rtibia 60.9348
rfoot -10.2946 -1.41624
rtoes -13.6722
lfemur -4.27001 0.317006 -32.077
ltibia 28.6426
lfoot -0.832291 -13.1988
ltoes 3.56629
2356
root 5.09635 18.16 10.9051 352.956 121.519 -5.02907
lowerback 10.3977 5.23005 0.669313
upperback 2.51133 7.10022 -2.99713
thorax -2.70771 3.61311 -4.35866
lowerneck -15.5844 9.52229 -3.98671
upperneck 46.608 23.1925 2.90263
head 20.0767 10.1241 7.20956
rclavicle 9.56651e-014 -2.98177e-014
rhumerus -35.1384 -10.0709 -81.6968
rradius 32.9828
rwrist 5.61583
rhand -13.3167 4.25248
rfingers 7.12502
rthumb 12.7879 -25.3359
lclavicle 9.56651e-014 -2.98177e-014
lhumerus -32.779 4.8038 82.8579
lradius 36.1197
lwrist -1.44984
lhand -20.447 27.3086
lfingers 7.12502
lthumb 5.90827 57.2062
rfemur -17.4479 -4.58266 11.5614
rtibia 61.7459
rfoot -10.0696 -1.20163
rtoes -13.4495
lfemur -4.44728 0.805038 -32.269
ltibia 28.2044
lfoot 0.246282 -13.7551
ltoes 7.60228
2357
root 5.02197 18.1738 10.9252 352.865 121.025 -5.19813
lowerback 10.1753 5.32899 0.634914
upperback 2.40037 7.22101 -3.06235
thorax -2.68784 3.67054 -4.40304
lowerneck -15.6872 9.51642 -3.77109
upperneck 46.6781 23.243 2.73261
head 20.2346 10.1323 7.15339
rclavicle -7.70291e-015 5.4467e-014
rhumerus -34.803 -9.98582 -81.7873
rradius 32.9552
rwrist 5.75644
rhand -13.1192 4.38642
rfingers 7.12502
rthumb 12.9783 -25.1899
lclavicle -7.70291e-015 5.4467e-014
lhumerus -33.4288 5.56011 82.3889
lradius 35.6388
lwrist -1.7807
lhand -20.467 26.8515
lfingers 7.12502
lthumb 5.88896 56.7497
rfemur -16.6331 -4.87066 11.5262
rtibia 62.3894
rfoot -10.0186 -0.839962
rtoes -12.3351
lfemur -4.60068 1.26396 -32.3601
ltibia 27.7832
lfoot 0.572579 -13.7253
ltoes 6.91553
2358
root 4.94418 18.19 10.947 353.084 120.555 -5.031
lowerback 10.0366 5.43017 0.769039
upperback 2.24598 7.3582 -3.07444
thorax -2.74366 3.73155 -4.49868
lowerneck -15.7155 9.50401 -3.64993
upperneck 46.6961 23.2575 2.61181
head 20.3089 10.1337 7.10223
rclavicle -1.16836e-013 1.27222e-014
rhumerus -34.5597 -9.8533 -81.861
rradius 33.065
rwrist 5.87542
rhand -13.2336 4.02931
rfingers 7.12502
rthumb 12.8681 -25.554
lclavicle -1.16836e-013 1.27222e-014
lhumerus -34.1356 6.13075 82.0213
lradius 35.2473
lwrist -1.91555
lhand -20.4582 27.169
lfingers 7.12502
lthumb 5.89746 57.0669
rfemur -15.7897 -5.12877 11.7275
rtibia 62.8511
rfoot -10.035 -0.3963
rtoes -11.4904
lfemur -4.81138 1.63367 -32.2627
ltibia 27.4022
lfoot 0.49562 -13.2596
ltoes 2.83102
2359
root 4.86649 18.2018 10.9689 353.504 120.078 -4.6141
lowerback 9.90944 5.49078 1.03446
upperback 2.09319 7.45418 -3.03267
thorax -2.79743 3.77012 -4.60674
lowerneck -15.6308 9.54718 -3.55382
upperneck 46.6596 23.3586 2.46491
head 20.3112 10.1746 7.03175
rclavicle 1.54257e-013 -2.70347e-014
rhumerus -34.3637 -9.66055 -81.8881
rradius 33.2077
rwrist 6.10361
rhand -13.3055 3.97194
rfingers 7.12502
rthumb 12.7987 -25.6157
lclavicle 1.54257e-013 -2.70347e-014
lhumerus -34.8657 6.67002 81.6917
lradius 34.868
lwrist -1.66001
lhand -20.5882 27.5873
lfingers 7.12502
lthumb 5.7719 57.4887
rfemur -14.8857 -5.33785 12.1136
rtibia 63.1652
rfoot -9.97009 0.0695749
rtoes -11.5672
lfemur -5.02534 1.92803 -32.0369
ltibia 27.0727
lfoot 0.53646 -12.9766
ltoes 0.307366
2360
root 4.78885 18.2091 10.9894 353.727 119.551 -4.40772
lowerback 9.78447 5.56669 1.2303
upperback 1.95633 7.56526 -3.04001
thorax -2.83587 3.81836 -4.72794
lowerneck -15.5231 9.61421 -3.46495
upperneck 46.5533 23.4387 2.33881
head 20.2512 10.2153 6.95024
rclavicle -5.91881e-014 9.14409e-015
rhumerus -34.1145 -9.46657 -81.948
rradius 33.3182
rwrist 6.16936
rhand -13.2099 4.04528
rfingers 7.12502
rthumb 12.8909 -25.5366
lclavicle -5.91881e-014 9.14409e-015
lhumerus -35.4674 7.15764 81.3362
lradius 34.1869
lwrist -1.63799
lhand -20.6312 27.5334
lfingers 7.12502
lthumb 5.73047 57.4359
rfemur -13.9462 -5.60376 12.3513
rtibia 63.3403
rfoot -9.64525 0.876707
rtoes -11.3164
lfemur -5.24799 2.34775 -31.9436
ltibia 26.7932
lfoot 0.581706 -12.9
ltoes 1.88294
